<svg width="16" height="17" viewBox="0 0 16 17" fill="none" xmlns="http://www.w3.org/2000/svg">
<path fill-rule="evenodd" clip-rule="evenodd" d="M2.23409 7.27273V5.19481C2.23409 3.81706 2.81109 2.49574 3.83815 1.52152C4.86521 0.547308 6.2582 0 7.71068 0C9.16316 0 10.5562 0.547308 11.5832 1.52152C12.6103 2.49574 13.1873 3.81706 13.1873 5.19481V7.27273C13.7683 7.27273 14.3255 7.49165 14.7363 7.88134C15.1471 8.27102 15.3779 8.79955 15.3779 9.35065V14.5455C15.3779 15.0966 15.1471 15.6251 14.7363 16.0148C14.3255 16.4045 13.7683 16.6234 13.1873 16.6234H2.23409C1.6531 16.6234 1.0959 16.4045 0.685079 16.0148C0.274255 15.6251 0.043457 15.0966 0.043457 14.5455V9.35065C0.043457 8.79955 0.274255 8.27102 0.685079 7.88134C1.0959 7.49165 1.6531 7.27273 2.23409 7.27273ZM10.9966 5.19481V7.27273H4.42473V5.19481C4.42473 4.36816 4.77093 3.57537 5.38716 2.99084C6.0034 2.40631 6.83919 2.07792 7.71068 2.07792C8.58217 2.07792 9.41797 2.40631 10.0342 2.99084C10.6504 3.57537 10.9966 4.36816 10.9966 5.19481Z" fill="black"/>
</svg>
