<svg width="16" height="18" viewBox="0 0 16 18" fill="none" xmlns="http://www.w3.org/2000/svg">
<path fill-rule="evenodd" clip-rule="evenodd" d="M2.18722 7.89577V5.81785C2.18722 4.4401 2.76421 3.11879 3.79127 2.14457C4.81833 1.17036 6.21132 0.623047 7.66381 0.623047C9.11629 0.623047 10.5093 1.17036 11.5363 2.14457C12.5634 3.11879 13.1404 4.4401 13.1404 5.81785V7.89577C13.7214 7.89577 14.2786 8.1147 14.6894 8.50438C15.1002 8.89407 15.331 9.4226 15.331 9.9737V15.1685C15.331 15.7196 15.1002 16.2481 14.6894 16.6378C14.2786 17.0275 13.7214 17.2464 13.1404 17.2464H2.18722C1.60622 17.2464 1.04903 17.0275 0.638204 16.6378C0.22738 16.2481 -0.00341797 15.7196 -0.00341797 15.1685V9.9737C-0.00341797 9.4226 0.22738 8.89407 0.638204 8.50438C1.04903 8.1147 1.60622 7.89577 2.18722 7.89577ZM10.9498 5.81785V7.89577H4.37785V5.81785C4.37785 4.9912 4.72405 4.19841 5.34029 3.61388C5.95652 3.02935 6.79232 2.70097 7.66381 2.70097C8.5353 2.70097 9.37109 3.02935 9.98733 3.61388C10.6036 4.19841 10.9498 4.9912 10.9498 5.81785Z" fill="black"/>
</svg>
