<svg width="16" height="16" viewBox="0 0 16 16" fill="none" xmlns="http://www.w3.org/2000/svg">
<path fill-rule="evenodd" clip-rule="evenodd" d="M6.01221 2.00663C4.95134 2.00663 3.93393 2.42805 3.18378 3.1782C2.43363 3.92834 2.01221 4.94576 2.01221 6.00663C2.01221 7.06749 2.43363 8.08491 3.18378 8.83505C3.93393 9.5852 4.95134 10.0066 6.01221 10.0066C7.07307 10.0066 8.09049 9.5852 8.84063 8.83505C9.59078 8.08491 10.0122 7.06749 10.0122 6.00663C10.0122 4.94576 9.59078 3.92834 8.84063 3.1782C8.09049 2.42805 7.07307 2.00663 6.01221 2.00663ZM0.0122071 6.00663C0.0120866 5.06233 0.23485 4.13134 0.662378 3.28937C1.08991 2.4474 1.71013 1.71822 2.4726 1.16115C3.23508 0.604079 4.11827 0.234838 5.05035 0.0834587C5.98244 -0.0679204 6.93709 0.00283688 7.83667 0.289976C8.73625 0.577115 9.55536 1.07253 10.2274 1.73592C10.8994 2.39932 11.4053 3.21196 11.7041 4.10776C12.0028 5.00356 12.0859 5.95722 11.9465 6.89118C11.8072 7.82514 11.4494 8.71302 10.9022 9.48263L15.7192 14.2996C15.9014 14.4882 16.0022 14.7408 15.9999 15.003C15.9976 15.2652 15.8924 15.516 15.707 15.7014C15.5216 15.8869 15.2708 15.992 15.0086 15.9943C14.7464 15.9966 14.4938 15.8958 14.3052 15.7136L9.48921 10.8976C8.59157 11.5359 7.53555 11.9148 6.43688 11.9927C5.33821 12.0707 4.23928 11.8447 3.26051 11.3396C2.28173 10.8345 1.46089 10.0697 0.887931 9.12898C0.314967 8.1883 0.011993 7.10806 0.0122071 6.00663Z" fill="white"/>
</svg>
